<?xml version="1.0" standalone="no"?>
<!DOCTYPE svg PUBLIC "-//W3C//DTD SVG 20010904//EN"
 "http://www.w3.org/TR/2001/REC-SVG-20010904/DTD/svg10.dtd">
<svg version="1.0" xmlns="http://www.w3.org/2000/svg"
 width="512.000000pt" height="512.000000pt" viewBox="0 0 512.000000 512.000000"
 preserveAspectRatio="xMidYMid meet">
<metadata>
Created by potrace 1.11, written by Peter Selinger 2001-2013
</metadata>
<g transform="translate(0.000000,512.000000) scale(0.100000,-0.100000)"
fill="#000000" stroke="none">
<path d="M946 3385 c-165 -32 -299 -123 -358 -243 -32 -65 -33 -70 -33 -197 0
-121 2 -134 27 -185 33 -67 87 -124 162 -169 72 -43 150 -71 338 -121 162 -43
259 -87 292 -133 16 -22 21 -43 21 -95 0 -84 -23 -120 -102 -158 -149 -73
-379 -26 -577 117 -37 28 -69 49 -70 47 -1 -2 -37 -44 -79 -95 -42 -50 -77
-96 -77 -101 0 -19 134 -113 225 -157 143 -71 222 -88 405 -89 145 -1 160 1
235 27 102 36 163 75 225 145 66 74 92 142 98 258 10 206 -78 338 -282 423
-41 17 -141 49 -221 71 -187 52 -264 83 -303 123 -52 54 -59 155 -15 215 51
71 197 99 354 68 77 -16 214 -73 264 -110 20 -15 24 -12 88 79 37 52 67 99 67
104 0 15 -83 69 -164 106 -157 73 -360 100 -520 70z"/>
<path d="M1990 2590 l0 -770 135 0 135 0 0 315 0 315 340 0 340 0 0 125 0 125
-340 0 -340 0 0 205 0 205 380 0 380 0 0 125 0 125 -515 0 -515 0 0 -770z"/>
<path d="M3320 2591 l0 -771 135 0 135 0 0 255 0 255 168 0 167 0 180 -255
180 -255 168 0 c92 0 167 2 167 5 0 3 -88 127 -196 276 -107 149 -194 272
-192 274 2 1 33 17 70 34 167 79 249 226 249 451 0 268 -104 407 -353 472 -77
20 -114 22 -480 25 l-398 5 0 -771z m800 505 c30 -8 66 -24 80 -34 99 -74 107
-299 14 -402 -60 -66 -94 -73 -376 -78 l-248 -4 0 272 0 272 238 -5 c173 -3
252 -9 292 -21z"/>
</g>
</svg>
